<svg xmlns="http://www.w3.org/2000/svg" viewBox="0 0 1200 630" role="img" aria-label="Agentwerke by Isartor AI — Governed Lights-Out Software Factory">
  <rect width="1200" height="630" fill="#0e0e0f"/>
  <rect width="1200" height="630" fill="url(#glow)"/>
  <g opacity="0.16" stroke="#3a494a" stroke-width="1">
    <path d="M0 90 H1200 M0 180 H1200 M0 270 H1200 M0 360 H1200 M0 450 H1200 M0 540 H1200"/>
    <path d="M100 0 V630 M300 0 V630 M500 0 V630 M700 0 V630 M900 0 V630 M1100 0 V630"/>
  </g>

  <g transform="translate(90,84)">
    <rect width="40" height="40" rx="5" fill="#33c5cf" fill-opacity="0.14" stroke="#33c5cf" stroke-opacity="0.55"/>
    <text x="20" y="27" text-anchor="middle" font-family="'JetBrains Mono', ui-monospace, monospace" font-size="18" font-weight="700" fill="#33c5cf">[]</text>
    <text x="56" y="28" font-family="Inter, Segoe UI, Helvetica, Arial, sans-serif" font-size="26" font-weight="700" fill="#e5e2e3">Agentwerke<tspan fill="#849495"> by Isartor AI</tspan></text>
  </g>

  <text x="90" y="300" font-family="Inter, Segoe UI, Helvetica, Arial, sans-serif" font-size="72" font-weight="700" letter-spacing="0" fill="#e5e2e3">Governed Lights-Out</text>
  <text x="90" y="386" font-family="Inter, Segoe UI, Helvetica, Arial, sans-serif" font-size="72" font-weight="700" letter-spacing="0" fill="#e5e2e3">Software Factory</text>

  <text x="92" y="446" font-family="'JetBrains Mono', ui-monospace, monospace" font-size="24" fill="#849495">BPMN workflows · policy gates · sandboxes · approvals · evidence</text>

  <g transform="translate(90,510)" font-family="'JetBrains Mono', ui-monospace, monospace" font-size="19" font-weight="500">
    <g><rect width="150" height="46" rx="4" fill="#1c1b1c" stroke="#3a494a"/><text x="75" y="29" text-anchor="middle" fill="#b6c0c1">Trigger</text></g>
    <g transform="translate(170,0)"><rect width="170" height="46" rx="4" fill="#1c1b1c" stroke="#33c5cf" stroke-opacity="0.6"/><text x="85" y="29" text-anchor="middle" fill="#33c5cf">Policy gate</text></g>
    <g transform="translate(360,0)"><rect width="150" height="46" rx="4" fill="#1c1b1c" stroke="#3a494a"/><text x="75" y="29" text-anchor="middle" fill="#b6c0c1">Approval</text></g>
    <g transform="translate(530,0)"><rect width="170" height="46" rx="4" fill="#1c1b1c" stroke="#81c995" stroke-opacity="0.6"/><text x="85" y="29" text-anchor="middle" fill="#81c995">Evidence</text></g>
  </g>

  <defs>
    <radialGradient id="glow" cx="82%" cy="0%" r="70%">
      <stop offset="0%" stop-color="#33c5cf" stop-opacity="0.18"/>
      <stop offset="60%" stop-color="#33c5cf" stop-opacity="0"/>
    </radialGradient>
  </defs>
</svg>
